<!-- Generator: Adobe Illustrator 25.0.0, SVG Export Plug-In  -->
<svg version="1.1" xmlns="http://www.w3.org/2000/svg" xmlns:xlink="http://www.w3.org/1999/xlink" x="0px" y="0px" width="314.2px"
	 height="314.2px" viewBox="0 0 314.2 314.2" style="overflow:visible;enable-background:new 0 0 314.2 314.2;"
	 xml:space="preserve">
<style type="text/css">
	.st0{clip-path:url(#SVGID_2_);fill:#FFFFFF;}
	.st1{clip-path:url(#SVGID_4_);fill:#FFFFFF;}
</style>
<defs>
</defs>
<g>
	<defs>
		<rect id="SVGID_1_" width="314.2" height="314.2"/>
	</defs>
	<clipPath id="SVGID_2_">
		<use xlink:href="#SVGID_1_"  style="overflow:visible;"/>
	</clipPath>
	<path class="st0" d="M134.1,138.6l-25.6,6.2c-10.2-19.3-22.8-51-8.6-70.9c8.3-11.7,20.4-11.1,28.7,0.2
		C141,90.9,137.9,119.2,134.1,138.6"/>
	<path class="st0" d="M199.6,120.4c10.5-0.4,17.9,11.2,20,20.3c3.6,15.7-2.6,35.6-9.2,49.9c-1,2.1-3,6.9-4.2,8.5
		c-0.3,0.4-0.4,0.7-0.9,0.6l-25.3-6.3c-0.8-3.7-1.5-7.4-1.9-11.2c-1.8-14.6-2.5-32.9,3.7-46.6C184.8,128.8,191.5,120.7,199.6,120.4"
		/>
	<path class="st0" d="M175.7,215.4l23,7c-1,8.7-3.9,21.3-12.8,25.2c-6.2,2.7-11.8,0.8-14.9-5.2C166.7,234,170.6,222.7,175.7,215.4"
		/>
	<path class="st0" d="M115.4,167c3-0.2,22.4-7.1,23.6-6.2c1.9,1.4,5.7,12.4,5.9,15c0.8,8.9-3.1,20-14,17.7
		C120,191.2,116.4,176.3,115.4,167"/>
</g>
</svg>
