<!-- Generator: Adobe Illustrator 25.0.0, SVG Export Plug-In  -->
<svg version="1.1" xmlns="http://www.w3.org/2000/svg" xmlns:xlink="http://www.w3.org/1999/xlink" x="0px" y="0px" width="67.9px"
	 height="88.6px" viewBox="0 0 67.9 88.6" style="overflow:visible;enable-background:new 0 0 67.9 88.6;" xml:space="preserve">
<style type="text/css">
	.st0{fill:#D62A34;}
	.st1{fill:#FFFFFF;}
</style>
<defs>
</defs>
<polygon class="st0" points="56.1,80.2 11.7,80.2 13.5,67.7 54.3,67.7 "/>
<g>
	<path class="st0" d="M41.8,40.9H27.6c-5.7,0-10.3-4.6-10.3-10.3v-5.3h34.8v5.3C52.1,36.3,47.5,40.9,41.8,40.9"/>
	<path class="st1" d="M8.7,8.3l6.7,24c2,7,8.3,11.9,15.6,11.9l5.9,0c7.4,0,13.8-4.9,15.8-12l6.4-23.7L8.7,8.3z M49.2,31.1
		c-1.6,5.8-6.8,9.8-12.8,9.7l-4.8,0c-5.9,0-11.1-4-12.7-9.7l-5.4-19.4l40.8,0.1L49.2,31.1z"/>
	<path class="st1" d="M52.7,56.3c-1.9-7.1-8.4-12.1-15.8-12l-5.9,0c-7.3,0-13.7,4.9-15.6,11.9l-6.7,24l50.4-0.2L52.7,56.3z
		 M18.9,57.4c1.6-5.7,6.8-9.6,12.7-9.7l4.8,0c6,0,11.2,4,12.8,9.7l5.2,19.2l-40.8,0.1L18.9,57.4z"/>
	<polygon class="st1" points="0,0 0,8.3 8.7,8.3 67.9,8.3 67.9,0 	"/>
	<polygon class="st1" points="0,80.2 0,88.6 67.9,88.6 67.9,80.2 8.7,80.2 	"/>
</g>
</svg>
