<!-- Generator: Adobe Illustrator 25.0.0, SVG Export Plug-In  -->
<svg
  version="1.1"
  xmlns="http://www.w3.org/2000/svg"
  xmlns:xlink="http://www.w3.org/1999/xlink"
  x="0px"
  y="0px"
  width="365.1px"
  height="73.7px"
  viewBox="0 0 365.1 73.7"
  style="overflow: visible; enable-background: new 0 0 365.1 73.7"
  xml:space="preserve"
>
  <style type="text/css">
    .st0 {
      clip-path: url(#SVGID_2_);
      fill: #ffffff;
    }
    .st1 {
      clip-path: url(#SVGID_2_);
      fill: #ea0029;
    }
    .st2 {
      clip-path: url(#SVGID_4_);
      fill: #ffffff;
    }
    .st3 {
      clip-path: url(#SVGID_4_);
      fill: #ea0029;
    }
  </style>
  <defs></defs>
  <g>
    <defs>
      <rect id="SVGID_1_" y="0" width="365.1" height="73.7" />
    </defs>
    <clipPath id="SVGID_2_">
      <use xlink:href="#SVGID_1_" style="overflow: visible" />
    </clipPath>
    <path
      class="st0"
      d="M330.3,27.2v-4.8h-15.8c-8,0-14.4,6-14.4,13.4v1.5c0,7.4,6.5,13.4,14.4,13.4l15.8,0V46h-15.2
		c-5.7,0-10.2-4-10.2-8.9v-1c0-4.9,4.6-8.9,10.2-8.9L330.3,27.2z"
    />
    <path
      class="st0"
      d="M104.8,22.4c-8,0-14.4,6-14.4,13.4v0.4v14.6h4.8V36.3v-0.2c0-4.9,4.6-8.9,10.2-8.9h11c0.1,0,2.7,0,2.7,0v-4.8
		H104.8z"
    />
    <path
      class="st0"
      d="M246.5,22.4c-8,0-14.4,6-14.4,13.4v0.4v14.6h4.8V36.3v-0.2c0-4.9,4.6-8.9,10.2-8.9h13.4c0.1,0,0.3,0,0.4,0
		v-4.8H246.5z"
    />
    <polygon
      class="st0"
      points="339,40.3 356.9,22.7 363.8,22.7 350.8,35.7 365.1,50.7 358.5,50.7 347.4,39.1 339,47.1 	"
    />
    <rect x="334.8" y="14.7" class="st0" width="4.8" height="36.2" />
    <path
      class="st0"
      d="M143.1,22.5c-1-0.2-2.9-0.4-5.2-0.4c-2.3,0-4.3,0.2-5.2,0.4c-6.6,1.2-11.7,6.6-11.7,13.2v1.5
		c0,6.5,5,12,11.7,13.2c1,0.2,2.9,0.4,5.2,0.4c2.3,0,4.3-0.2,5.2-0.4c6.6-1.2,11.7-6.6,11.7-13.2v-1.5
		C154.8,29.2,149.7,23.7,143.1,22.5 M149.9,37l0,0.3c-0.1,4.2-3.7,7.7-8.4,8.5c-0.8,0.2-2.2,0.3-3.7,0.3s-2.8-0.1-3.7-0.3
		c-4.7-0.7-8.2-4.2-8.4-8.5l0-0.3v-1c0-4.4,3.6-8,8.4-8.7c0.8-0.2,2.2-0.3,3.7-0.3s2.8,0.1,3.7,0.3c4.8,0.8,8.4,4.4,8.4,8.7V37z"
    />
    <path
      class="st0"
      d="M216.8,22.5c-1-0.2-2.9-0.4-5.2-0.4c-2.3,0-4.3,0.2-5.2,0.4c-6.6,1.2-11.7,6.6-11.7,13.2v1.5
		c0,6.5,5,12,11.7,13.2c1,0.2,2.9,0.4,5.2,0.4c2.3,0,4.3-0.2,5.2-0.4c6.6-1.2,11.7-6.6,11.7-13.2v-1.5
		C228.4,29.2,223.4,23.7,216.8,22.5 M223.6,37l0,0.3c-0.1,4.2-3.7,7.7-8.4,8.5c-0.8,0.2-2.2,0.3-3.7,0.3c-1.5,0-2.8-0.1-3.7-0.3
		c-4.7-0.7-8.2-4.2-8.4-8.5l0-0.3v-1c0-4.4,3.6-8,8.4-8.7c0.8-0.2,2.2-0.3,3.7-0.3c1.5,0,2.8,0.1,3.7,0.3c4.8,0.8,8.4,4.4,8.4,8.7
		V37z"
    />
    <path
      class="st0"
      d="M284.8,22.5c-1-0.2-2.9-0.4-5.2-0.4c-2.3,0-4.3,0.2-5.2,0.4c-6.6,1.2-11.7,6.6-11.7,13.2v1.5
		c0,6.5,5,12,11.7,13.2c1,0.2,2.9,0.4,5.2,0.4c2.3,0,4.3-0.2,5.2-0.4c6.6-1.2,11.7-6.6,11.7-13.2v-1.5
		C296.5,29.2,291.5,23.7,284.8,22.5 M291.7,37l0,0.3c-0.1,4.2-3.7,7.7-8.4,8.5c-0.8,0.2-2.2,0.3-3.7,0.3c-1.5,0-2.8-0.1-3.7-0.3
		c-4.7-0.7-8.2-4.2-8.4-8.5l0-0.3v-1c0-4.4,3.6-8,8.4-8.7c0.8-0.2,2.2-0.3,3.7-0.3c1.5,0,2.8,0.1,3.7,0.3c4.8,0.8,8.4,4.4,8.4,8.7
		V37z"
    />
    <path
      class="st0"
      d="M179.7,22.5c-0.9-0.2-2.8-0.4-5.1-0.4s-4.1,0.2-5.1,0.4c-2.4,0.5-4.6,1.5-6.4,3V14.7h-4.8v21V37v0.2
		c0,6.5,4.8,12,11.3,13.2c0.9,0.2,2.8,0.4,5.1,0.4s4.1-0.2,5.1-0.4c6.4-1.2,11.3-6.6,11.3-13.2v-1.5
		C190.9,29.2,186.1,23.7,179.7,22.5 M186.3,37l0,0.3c-0.1,4.2-3.6,7.7-8.1,8.5c-0.8,0.2-2.1,0.3-3.6,0.3s-2.7-0.1-3.6-0.3
		c-4.5-0.7-8-4.2-8.1-8.5l0-0.3v-1c0-4.4,3.5-8,8.1-8.7c0.8-0.2,2.1-0.3,3.6-0.3s2.7,0.1,3.6,0.3c4.6,0.8,8.1,4.4,8.1,8.7V37z"
    />
    <path
      class="st1"
      d="M37.4,0C17.1-0.3,0.3,15.9,0,36.3c-0.3,20.4,15.9,37.1,36.3,37.4C56.6,74,73.4,57.8,73.7,37.4
		C74,17.1,57.8,0.3,37.4,0"
    />
    <path
      class="st0"
      d="M56.3,55.5h-1h-37h-0.9c-2,0-3.1-2.5-1.6-3.9l0.7-0.7L45,22.7H21.2c-0.2,0-0.2-0.2-0.1-0.3l4.2-4.1h25.2
		c2,0,3,2.5,1.6,3.9l-0.6,0.5L23,50.9h27.8L39.9,40l3.2-3.2l14.1,14.1l0.7,0.7C59.4,53,58.3,55.5,56.3,55.5"
    />
  </g>
</svg>
